<mxfile host="app.diagrams.net" modified="2020-06-11T13:09:06.890Z" agent="5.0 (Windows NT 10.0; Win64; x64) AppleWebKit/537.36 (KHTML, like Gecko) Chrome/83.0.4103.97 Safari/537.36" etag="ER9wDGuidbzRGRbJVfIU" version="13.0.2" type="github">
  <diagram id="jDdfWEsaQ2C_qDI7EYkK" name="Page-1">
    <mxGraphModel dx="1422" dy="794" grid="1" gridSize="10" guides="1" tooltips="1" connect="1" arrows="1" fold="1" page="1" pageScale="1" pageWidth="827" pageHeight="1169" math="0" shadow="0">
      <root>
        <mxCell id="0" />
        <mxCell id="1" parent="0" />
        <mxCell id="o1l8TG1U0-jFIY-JkwKF-1" value="BaseServer" style="html=1;" vertex="1" parent="1">
          <mxGeometry x="540" y="320" width="110" height="50" as="geometry" />
        </mxCell>
        <mxCell id="o1l8TG1U0-jFIY-JkwKF-3" value="BuildServer" style="html=1;" vertex="1" parent="1">
          <mxGeometry x="540" y="440" width="110" height="50" as="geometry" />
        </mxCell>
        <mxCell id="o1l8TG1U0-jFIY-JkwKF-4" value="Extends" style="endArrow=block;endSize=16;endFill=0;html=1;" edge="1" parent="1" source="o1l8TG1U0-jFIY-JkwKF-3" target="o1l8TG1U0-jFIY-JkwKF-1">
          <mxGeometry width="160" relative="1" as="geometry">
            <mxPoint x="520" y="340" as="sourcePoint" />
            <mxPoint x="680" y="340" as="targetPoint" />
          </mxGeometry>
        </mxCell>
        <mxCell id="o1l8TG1U0-jFIY-JkwKF-5" value="builderMap" style="html=1;" vertex="1" parent="1">
          <mxGeometry x="160" y="320" width="110" height="50" as="geometry" />
        </mxCell>
        <mxCell id="o1l8TG1U0-jFIY-JkwKF-6" value="Use" style="endArrow=open;endSize=12;dashed=1;html=1;" edge="1" parent="1" source="o1l8TG1U0-jFIY-JkwKF-5" target="o1l8TG1U0-jFIY-JkwKF-8">
          <mxGeometry width="160" relative="1" as="geometry">
            <mxPoint x="380" y="330" as="sourcePoint" />
            <mxPoint x="160" y="480" as="targetPoint" />
          </mxGeometry>
        </mxCell>
        <mxCell id="o1l8TG1U0-jFIY-JkwKF-8" value="uiBuilder" style="html=1;" vertex="1" parent="1">
          <mxGeometry x="30" y="500" width="110" height="50" as="geometry" />
        </mxCell>
        <mxCell id="o1l8TG1U0-jFIY-JkwKF-9" value="soundBuilder" style="html=1;" vertex="1" parent="1">
          <mxGeometry x="160" y="500" width="110" height="50" as="geometry" />
        </mxCell>
        <mxCell id="o1l8TG1U0-jFIY-JkwKF-10" value="map_checkBuilder" style="html=1;" vertex="1" parent="1">
          <mxGeometry x="290" y="500" width="110" height="50" as="geometry" />
        </mxCell>
        <mxCell id="o1l8TG1U0-jFIY-JkwKF-11" value="Use" style="endArrow=open;endSize=12;dashed=1;html=1;" edge="1" parent="1" source="o1l8TG1U0-jFIY-JkwKF-5" target="o1l8TG1U0-jFIY-JkwKF-10">
          <mxGeometry width="160" relative="1" as="geometry">
            <mxPoint x="189.72222222222217" y="380" as="sourcePoint" />
            <mxPoint x="110.27777777777783" y="510" as="targetPoint" />
          </mxGeometry>
        </mxCell>
        <mxCell id="o1l8TG1U0-jFIY-JkwKF-12" value="Use" style="endArrow=open;endSize=12;dashed=1;html=1;" edge="1" parent="1" source="o1l8TG1U0-jFIY-JkwKF-5" target="o1l8TG1U0-jFIY-JkwKF-9">
          <mxGeometry width="160" relative="1" as="geometry">
            <mxPoint x="199.72222222222217" y="390" as="sourcePoint" />
            <mxPoint x="120.27777777777783" y="520" as="targetPoint" />
          </mxGeometry>
        </mxCell>
        <mxCell id="o1l8TG1U0-jFIY-JkwKF-13" value="CommonFunction.py&lt;br&gt;" style="shape=note;whiteSpace=wrap;html=1;size=14;verticalAlign=top;align=left;spacingTop=-6;" vertex="1" parent="1">
          <mxGeometry x="314" y="130" width="146" height="30" as="geometry" />
        </mxCell>
        <mxCell id="o1l8TG1U0-jFIY-JkwKF-14" value="environment.py" style="shape=note;whiteSpace=wrap;html=1;size=14;verticalAlign=top;align=left;spacingTop=-6;" vertex="1" parent="1">
          <mxGeometry x="124" y="130" width="116" height="30" as="geometry" />
        </mxCell>
      </root>
    </mxGraphModel>
  </diagram>
</mxfile>
